<?xml version="1.0" encoding="utf-8"?>
<!-- Generator: Adobe Illustrator 21.1.0, SVG Export Plug-In . SVG Version: 6.00 Build 0)  -->
<svg version="1.1" id="Layer_1" xmlns="http://www.w3.org/2000/svg" xmlns:xlink="http://www.w3.org/1999/xlink" x="0px" y="0px"
	 width="75px" height="75px" viewBox="0 0 75 75" style="enable-background:new 0 0 75 75;" xml:space="preserve">
<style type="text/css">
	.st0{fill:#2F4154;}
	.st1{fill:#9CADB7;}
	.st2{fill:#9CADB7;stroke:#FFFFFF;stroke-width:1.5;stroke-miterlimit:10;}
</style>
<g>
	<rect x="10.2" y="15.4" class="st0" width="49.2" height="4"/>
	<path class="st0" d="M68.3,38.1l-8.8-17.5H10.2L1.4,38.1h8.8v21h27.9v-21h10.5v21h10.9v-21H68.3z M30.3,48.1H17.9v-10h1.2h11.2
		V48.1z"/>
</g>
<rect x="10.2" y="19.4" class="st1" width="49.2" height="1.2"/>
<path class="st2" d="M71.6,46.8h-5.6v-5.6c0-1.1-0.9-2.1-2.1-2.1H63c-1.1,0-2.1,0.9-2.1,2.1v5.6h-5.6c-1.1,0-2.1,0.9-2.1,2.1v0.9
	c0,1.1,0.9,2.1,2.1,2.1h5.6v5.6c0,1.1,0.9,2.1,2.1,2.1h0.9c1.1,0,2.1-0.9,2.1-2.1v-5.6h5.6c1.1,0,2.1-0.9,2.1-2.1v-0.9
	C73.6,47.8,72.7,46.8,71.6,46.8z"/>
</svg>
