<?xml version="1.0" encoding="utf-8"?>
<!-- Generator: Adobe Illustrator 21.1.0, SVG Export Plug-In . SVG Version: 6.00 Build 0)  -->
<svg version="1.1" id="Layer_1" xmlns="http://www.w3.org/2000/svg" xmlns:xlink="http://www.w3.org/1999/xlink" x="0px" y="0px"
	 width="75px" height="75px" viewBox="0 0 75 75" enable-background="new 0 0 75 75" xml:space="preserve">
<g>
	<rect x="8.6214" y="18.78" fill="#2F4154" width="42.0665" height="3.3889"/>
	<path fill="#2F4154" d="M58.2497,38.1729l-7.5618-14.9776H8.6214L1.0595,38.1729h7.5618v17.958h23.8069v-17.958h8.9652v17.958
		h9.2945v-17.958H58.2497z M25.7766,46.6909h-10.579v-8.518h0.9856h9.5934L25.7766,46.6909L25.7766,46.6909z"/>
</g>
<rect x="8.6214" y="22.1689" fill="#9CADB7" width="42.0665" height="1.0263"/>
<circle fill="#9CADB7" cx="60.1033" cy="42.3828" r="13.8371"/>
<g>
	<path fill="#2F4154" d="M68.3565,33.2642c-0.3764-0.4133-1.0181-0.4468-1.4374-0.081l-0.0001-0.0001l-0.0003,0.0002
		c-0.0055,0.0048-0.0118,0.0078-0.0172,0.0127l-0.6346,0.5778c-0.0005,0.0005-0.0009,0.001-0.0013,0.0015l-0.8516,0.772
		l2.9383,3.2412l0.8452-0.7662c0.0052-0.0046,0.0112-0.0074,0.0164-0.0121l0.6346-0.5778c0.0003-0.0003,0.0005-0.0006,0.0008-0.0009
		l0.0079-0.0072l-0.0008-0.0008c0.4102-0.3825,0.4387-1.0301,0.0601-1.4459L68.3565,33.2642z"/>
</g>
<rect x="52.2323" y="39.8317" transform="matrix(0.7375 -0.6753 0.6753 0.7375 -12.5022 51.8814)" fill="#2F4154" width="16.518" height="4.3848"/>
<polygon fill="#2F4154" points="50.8576,50.8484 52.6286,46.2542 55.5898,49.4882 "/>
</svg>
